<svg width="17" height="29" viewBox="0 0 17 29" fill="none" xmlns="http://www.w3.org/2000/svg">
<path d="M14.7731 1.00551L11.3403 1C7.48366 1 4.99132 3.55706 4.99132 7.51478V10.5185H1.53978C1.24152 10.5185 1 10.7603 1 11.0586V15.4107C1 15.7089 1.2418 15.9504 1.53978 15.9504H4.99132V26.9321C4.99132 27.2304 5.23284 27.4719 5.5311 27.4719H10.0344C10.3326 27.4719 10.5742 27.2301 10.5742 26.9321V15.9504H14.6098C14.9081 15.9504 15.1496 15.7089 15.1496 15.4107L15.1512 11.0586C15.1512 10.9154 15.0942 10.7782 14.9932 10.6769C14.8921 10.5755 14.7544 10.5185 14.6112 10.5185H10.5742V7.97221C10.5742 6.74835 10.8658 6.12705 12.4601 6.12705L14.7726 6.12623C15.0706 6.12623 15.3121 5.88443 15.3121 5.58645V1.54528C15.3121 1.24758 15.0708 1.00606 14.7731 1.00551Z" stroke="#BBBABA" stroke-width="2"/>
</svg>
